<mxfile host="app.diagrams.net" modified="2022-06-13T12:49:33.980Z" agent="5.0 (X11)" etag="fhmzPoip70qBX3Vj0OrT" version="20.0.1" type="github">
  <diagram id="PQY_MagAeAY2v6jVSkVq" name="Page-1">
    <mxGraphModel dx="1182" dy="630" grid="1" gridSize="10" guides="1" tooltips="1" connect="1" arrows="1" fold="1" page="1" pageScale="1" pageWidth="850" pageHeight="1100" math="0" shadow="0">
      <root>
        <mxCell id="0" />
        <mxCell id="1" parent="0" />
        <mxCell id="TIzy7ZWIU3yhgnEuOh3n-13" style="edgeStyle=orthogonalEdgeStyle;rounded=0;orthogonalLoop=1;jettySize=auto;html=1;entryX=0.5;entryY=0;entryDx=0;entryDy=0;fontSize=14;fontColor=#0066CC;" edge="1" parent="1" source="TIzy7ZWIU3yhgnEuOh3n-1" target="TIzy7ZWIU3yhgnEuOh3n-4">
          <mxGeometry relative="1" as="geometry" />
        </mxCell>
        <mxCell id="TIzy7ZWIU3yhgnEuOh3n-1" value="&lt;font color=&quot;#0066CC&quot;&gt;&lt;b&gt;User&lt;/b&gt;&lt;/font&gt;" style="shape=umlActor;verticalLabelPosition=bottom;verticalAlign=top;html=1;outlineConnect=0;strokeWidth=4;fillColor=#dae8fc;strokeColor=#6c8ebf;" vertex="1" parent="1">
          <mxGeometry x="90" y="120" width="30" height="60" as="geometry" />
        </mxCell>
        <mxCell id="TIzy7ZWIU3yhgnEuOh3n-14" style="edgeStyle=orthogonalEdgeStyle;rounded=0;orthogonalLoop=1;jettySize=auto;html=1;entryX=0;entryY=0.5;entryDx=0;entryDy=0;fontSize=14;fontColor=#0066CC;" edge="1" parent="1" source="TIzy7ZWIU3yhgnEuOh3n-4" target="TIzy7ZWIU3yhgnEuOh3n-5">
          <mxGeometry relative="1" as="geometry">
            <Array as="points">
              <mxPoint x="470" y="220" />
              <mxPoint x="470" y="220" />
            </Array>
          </mxGeometry>
        </mxCell>
        <mxCell id="TIzy7ZWIU3yhgnEuOh3n-15" style="edgeStyle=orthogonalEdgeStyle;rounded=0;orthogonalLoop=1;jettySize=auto;html=1;exitX=0.25;exitY=1;exitDx=0;exitDy=0;fontSize=14;fontColor=#0066CC;" edge="1" parent="1" source="TIzy7ZWIU3yhgnEuOh3n-4">
          <mxGeometry relative="1" as="geometry">
            <mxPoint x="240" y="220" as="targetPoint" />
            <Array as="points">
              <mxPoint x="273" y="340" />
              <mxPoint x="180" y="340" />
              <mxPoint x="180" y="220" />
            </Array>
          </mxGeometry>
        </mxCell>
        <mxCell id="TIzy7ZWIU3yhgnEuOh3n-16" style="edgeStyle=orthogonalEdgeStyle;rounded=0;orthogonalLoop=1;jettySize=auto;html=1;entryX=0;entryY=0.5;entryDx=0;entryDy=0;fontSize=14;fontColor=#0066CC;" edge="1" parent="1" source="TIzy7ZWIU3yhgnEuOh3n-4" target="TIzy7ZWIU3yhgnEuOh3n-6">
          <mxGeometry relative="1" as="geometry">
            <Array as="points">
              <mxPoint x="320" y="335" />
            </Array>
          </mxGeometry>
        </mxCell>
        <mxCell id="TIzy7ZWIU3yhgnEuOh3n-4" value="&lt;font color=&quot;#994C00&quot;&gt;&lt;b&gt;&lt;font style=&quot;font-size: 14px;&quot;&gt;submitted&lt;/font&gt;&lt;/b&gt;&lt;/font&gt;" style="rounded=1;whiteSpace=wrap;html=1;strokeWidth=4;fillColor=#fff2cc;strokeColor=#d6b656;" vertex="1" parent="1">
          <mxGeometry x="250" y="200" width="90" height="40" as="geometry" />
        </mxCell>
        <mxCell id="TIzy7ZWIU3yhgnEuOh3n-19" style="edgeStyle=orthogonalEdgeStyle;rounded=0;orthogonalLoop=1;jettySize=auto;html=1;fontSize=14;fontColor=#0066CC;" edge="1" parent="1" source="TIzy7ZWIU3yhgnEuOh3n-5" target="TIzy7ZWIU3yhgnEuOh3n-1">
          <mxGeometry relative="1" as="geometry">
            <Array as="points">
              <mxPoint x="640" y="220" />
              <mxPoint x="640" y="80" />
              <mxPoint x="105" y="80" />
            </Array>
          </mxGeometry>
        </mxCell>
        <mxCell id="TIzy7ZWIU3yhgnEuOh3n-5" value="&lt;b&gt;done&lt;/b&gt;" style="rounded=1;whiteSpace=wrap;html=1;strokeWidth=4;fillColor=#66FF66;strokeColor=#009900;" vertex="1" parent="1">
          <mxGeometry x="510" y="205" width="60" height="30" as="geometry" />
        </mxCell>
        <mxCell id="TIzy7ZWIU3yhgnEuOh3n-17" style="edgeStyle=orthogonalEdgeStyle;rounded=0;orthogonalLoop=1;jettySize=auto;html=1;fontSize=14;fontColor=#0066CC;" edge="1" parent="1" source="TIzy7ZWIU3yhgnEuOh3n-6" target="TIzy7ZWIU3yhgnEuOh3n-7">
          <mxGeometry relative="1" as="geometry" />
        </mxCell>
        <mxCell id="TIzy7ZWIU3yhgnEuOh3n-21" style="edgeStyle=orthogonalEdgeStyle;rounded=0;orthogonalLoop=1;jettySize=auto;html=1;entryX=1;entryY=0.75;entryDx=0;entryDy=0;fontSize=14;fontColor=#0066CC;" edge="1" parent="1" source="TIzy7ZWIU3yhgnEuOh3n-6" target="TIzy7ZWIU3yhgnEuOh3n-4">
          <mxGeometry relative="1" as="geometry">
            <Array as="points">
              <mxPoint x="450" y="230" />
            </Array>
          </mxGeometry>
        </mxCell>
        <mxCell id="TIzy7ZWIU3yhgnEuOh3n-6" value="&lt;b&gt;failed&lt;/b&gt;" style="rounded=1;whiteSpace=wrap;html=1;strokeWidth=4;fillColor=#f8cecc;strokeColor=#b85450;" vertex="1" parent="1">
          <mxGeometry x="425" y="320" width="60" height="30" as="geometry" />
        </mxCell>
        <mxCell id="TIzy7ZWIU3yhgnEuOh3n-18" style="edgeStyle=orthogonalEdgeStyle;rounded=0;orthogonalLoop=1;jettySize=auto;html=1;entryX=0.5;entryY=1;entryDx=0;entryDy=0;fontSize=14;fontColor=#0066CC;" edge="1" parent="1" source="TIzy7ZWIU3yhgnEuOh3n-7" target="TIzy7ZWIU3yhgnEuOh3n-5">
          <mxGeometry relative="1" as="geometry" />
        </mxCell>
        <mxCell id="TIzy7ZWIU3yhgnEuOh3n-7" value="&lt;b&gt;&lt;font color=&quot;#4C0099&quot;&gt;ODA support&lt;/font&gt;&lt;/b&gt;" style="shape=umlActor;verticalLabelPosition=bottom;verticalAlign=top;html=1;outlineConnect=0;strokeWidth=4;fillColor=#6a00ff;strokeColor=#3700CC;fontColor=#ffffff;" vertex="1" parent="1">
          <mxGeometry x="525" y="345" width="30" height="60" as="geometry" />
        </mxCell>
      </root>
    </mxGraphModel>
  </diagram>
</mxfile>
